<svg id="Layer_1" data-name="Layer 1" xmlns="http://www.w3.org/2000/svg" viewBox="0 0 500 500" width="500" height="500" class="illustration"><defs><style>.cls-1{fill:#333b72;}.cls-2{fill:#151b47;}.cls-3{fill:#0099f5;}.cls-4{fill:#0086f4;}.cls-5{fill:#e2e2e2;}</style></defs><title>Creative Tools</title><path class="cls-1" d="M248.68,452.31,35.7,333.78a3.31,3.31,0,0,1,0-5.79l213-118.52a3.28,3.28,0,0,1,3.21,0L464.87,328a3.31,3.31,0,0,1,0,5.79l-213,118.53A3.33,3.33,0,0,1,248.68,452.31Z"></path><path class="cls-2" d="M247.39,209.68,65.2,311.07l185,103a3.35,3.35,0,0,0,3.22,0l182.18-101.4-185-103A3.28,3.28,0,0,0,247.39,209.68Z"></path><path class="cls-3" d="M248.11,376.08l-213-118.52a3.31,3.31,0,0,1,0-5.79l213-118.52a3.28,3.28,0,0,1,3.21,0l213,118.52a3.31,3.31,0,0,1,0,5.79l-213,118.52A3.28,3.28,0,0,1,248.11,376.08Z"></path><path class="cls-4" d="M246.82,133.45,64.63,234.85l185,103a3.35,3.35,0,0,0,3.22,0l182.18-101.4-185-103A3.35,3.35,0,0,0,246.82,133.45Z"></path><path class="cls-5" d="M248.54,301.05l-213-118.53a3.31,3.31,0,0,1,0-5.78l213-118.53a3.3,3.3,0,0,1,3.22,0l213,118.53a3.31,3.31,0,0,1,0,5.78l-213,118.53A3.3,3.3,0,0,1,248.54,301.05Z"></path></svg>